{
    "asset" : {
        "generator" : "Khronos glTF Blender I/O v1.3.48",
        "version" : "2.0"
    },
    "scene" : 0,
    "scenes" : [
        {
            "name" : "Scene",
            "nodes" : [
                0
            ]
        }
    ],
    "nodes" : [
        {
            "mesh" : 0,
            "name" : "001_divano_Lilia",
            "rotation" : [
                0.7071068286895752,
                0,
                0,
                0.7071067094802856
            ],
            "scale" : [
                0.009999999776482582,
                0.009999999776482582,
                0.009999999776482582
            ]
        }
    ],
    "materials" : [
        {
            "doubleSided" : true,
            "emissiveFactor" : [
                0,
                0,
                0
            ],
            "name" : "Material",
            "pbrMetallicRoughness" : {
                "baseColorFactor" : [
                    0.2691379487514496,
                    0.2691379487514496,
                    0.2691379487514496,
                    1
                ],
                "metallicFactor" : 0,
                "roughnessFactor" : 1
            }
        }
    ],
    "meshes" : [
        {
            "name" : "001_divano_Lilia",
            "primitives" : [
                {
                    "attributes" : {
                        "POSITION" : 0,
                        "NORMAL" : 1,
                        "TEXCOORD_0" : 2
                    },
                    "indices" : 3,
                    "material" : 0
                }
            ]
        }
    ],
    "accessors" : [
        {
            "bufferView" : 0,
            "componentType" : 5126,
            "count" : 33193,
            "max" : [
                122.12614440917969,
                61.1129264831543,
                0.0050764428451657295
            ],
            "min" : [
                -122.10013580322266,
                -50.74742126464844,
                -101.46910095214844
            ],
            "type" : "VEC3"
        },
        {
            "bufferView" : 1,
            "componentType" : 5126,
            "count" : 33193,
            "type" : "VEC3"
        },
        {
            "bufferView" : 2,
            "componentType" : 5126,
            "count" : 33193,
            "type" : "VEC2"
        },
        {
            "bufferView" : 3,
            "componentType" : 5123,
            "count" : 133302,
            "type" : "SCALAR"
        }
    ],
    "bufferViews" : [
        {
            "buffer" : 0,
            "byteLength" : 398316,
            "byteOffset" : 0
        },
        {
            "buffer" : 0,
            "byteLength" : 398316,
            "byteOffset" : 398316
        },
        {
            "buffer" : 0,
            "byteLength" : 265544,
            "byteOffset" : 796632
        },
        {
            "buffer" : 0,
            "byteLength" : 266604,
            "byteOffset" : 1062176
        }
    ],
    "buffers" : [
        {
            "byteLength" : 1328780,
            "uri" : "data:application/octet-stream;base64,"
        }
    ]
}
