{
    "asset" : {
        "generator" : "Khronos glTF Blender I/O v1.3.48",
        "version" : "2.0"
    },
    "scene" : 0,
    "scenes" : [
        {
            "name" : "Scene",
            "nodes" : [
                2
            ]
        }
    ],
    "nodes" : [
        {
            "mesh" : 0,
            "name" : "Object001",
            "scale" : [
                0.10000000149011612,
                0.10000000149011612,
                0.10000000149011612
            ],
            "translation" : [
                -56.73109436035156,
                32.40428161621094,
                -69.45922088623047
            ]
        },
        {
            "mesh" : 1,
            "name" : "VIFS028",
            "scale" : [
                0.10000000149011612,
                0.10000000149011612,
                0.10000000149011612
            ],
            "translation" : [
                -56.73109436035156,
                32.40428161621094,
                -69.45922088623047
            ]
        },
        {
            "children" : [
                0,
                1
            ],
            "name" : "test",
            "rotation" : [
                0.7071068286895752,
                0,
                0,
                0.7071067094802856
            ]
        }
    ],
    "materials" : [
        {
            "doubleSided" : true,
            "emissiveFactor" : [
                0,
                0,
                0
            ],
            "name" : "VMtl005",
            "pbrMetallicRoughness" : {
                "baseColorTexture" : {
                    "index" : 0,
                    "texCoord" : 0
                },
                "metallicFactor" : 0,
                "roughnessFactor" : 1
            }
        },
        {
            "doubleSided" : true,
            "emissiveFactor" : [
                0,
                0,
                0
            ],
            "name" : "VMtl006",
            "pbrMetallicRoughness" : {
                "baseColorFactor" : [
                    1,
                    1,
                    1,
                    1
                ],
                "metallicFactor" : 1,
                "roughnessFactor" : 0.19545453786849976
            }
        }
    ],
    "meshes" : [
        {
            "name" : "Object001",
            "primitives" : [
                {
                    "attributes" : {
                        "POSITION" : 0,
                        "NORMAL" : 1,
                        "TEXCOORD_0" : 2
                    },
                    "indices" : 3,
                    "material" : 0
                }
            ]
        },
        {
            "name" : "primitive_0",
            "primitives" : [
                {
                    "attributes" : {
                        "POSITION" : 4,
                        "NORMAL" : 5,
                        "TEXCOORD_0" : 6
                    },
                    "indices" : 7,
                    "material" : 1
                }
            ]
        }
    ],
    "textures" : [
        {
            "source" : 0
        }
    ],
    "images" : [
        {
            "bufferView" : 4,
            "mimeType" : "image/jpeg",
            "name" : "black wood"
        }
    ],
    "accessors" : [
        {
            "bufferView" : 0,
            "componentType" : 5126,
            "count" : 635,
            "max" : [
                1100,
                0,
                0
            ],
            "min" : [
                0,
                -600.0000610351562,
                -118.00006866455078
            ],
            "type" : "VEC3"
        },
        {
            "bufferView" : 1,
            "componentType" : 5126,
            "count" : 635,
            "type" : "VEC3"
        },
        {
            "bufferView" : 2,
            "componentType" : 5126,
            "count" : 635,
            "type" : "VEC2"
        },
        {
            "bufferView" : 3,
            "componentType" : 5123,
            "count" : 792,
            "type" : "SCALAR"
        },
        {
            "bufferView" : 5,
            "componentType" : 5126,
            "count" : 32343,
            "max" : [
                1111.483642578125,
                5.260427951812744,
                714.9514770507812
            ],
            "min" : [
                -10.667236328125,
                -616.88916015625,
                -0.04882799834012985
            ],
            "type" : "VEC3"
        },
        {
            "bufferView" : 6,
            "componentType" : 5126,
            "count" : 32343,
            "type" : "VEC3"
        },
        {
            "bufferView" : 7,
            "componentType" : 5126,
            "count" : 32343,
            "type" : "VEC2"
        },
        {
            "bufferView" : 8,
            "componentType" : 5123,
            "count" : 65838,
            "type" : "SCALAR"
        }
    ],
    "bufferViews" : [
        {
            "buffer" : 0,
            "byteLength" : 7620,
            "byteOffset" : 0
        },
        {
            "buffer" : 0,
            "byteLength" : 7620,
            "byteOffset" : 7620
        },
        {
            "buffer" : 0,
            "byteLength" : 5080,
            "byteOffset" : 15240
        },
        {
            "buffer" : 0,
            "byteLength" : 1584,
            "byteOffset" : 20320
        },
        {
            "buffer" : 0,
            "byteLength" : 233532,
            "byteOffset" : 21904
        },
        {
            "buffer" : 0,
            "byteLength" : 388116,
            "byteOffset" : 255436
        },
        {
            "buffer" : 0,
            "byteLength" : 388116,
            "byteOffset" : 643552
        },
        {
            "buffer" : 0,
            "byteLength" : 258744,
            "byteOffset" : 1031668
        },
        {
            "buffer" : 0,
            "byteLength" : 131676,
            "byteOffset" : 1290412
        }
    ],
    "buffers" : [
        {
            "byteLength" : 1422088,
            "uri" : "data:application/octet-stream;base64,"
        }
    ]
}
